<svg xmlns="http://www.w3.org/2000/svg" viewBox="0 0 5739.68 1200.2"><defs><style>.cls-1{fill:#090909;}.cls-2{fill:#68bec5;}.cls-3{fill:#6abdc3;}</style></defs><g id="Layer_2" data-name="Layer 2"><g id="Layer_1-2" data-name="Layer 1"><g id="Layer_2-2" data-name="Layer 2"><g id="Layer_1-2-2" data-name="Layer 1-2"><path class="cls-1" d="M2653.4,378.93V209.25c0-10.22,1.77-12.05,12.36-12.05,75.26,0,150.53-.4,225.79.21,34.26.28,68.55,1.63,102.71,4.86,12.79,1.21,23.16,7.88,33.14,15,11.66,8.28,19.3,20,25.32,32.78,1.38,2.92,1.75,6.41,2.12,9.68a272.69,272.69,0,0,1-.14,64.73c-2,15.46-10.94,27.45-23.64,36.49-1.34,1-3,1.45-4.35,2.41-2.4,1.73-5.4,3.44-4.56,7,.75,3.17,3.95,3.14,6.51,3.63,15.59,3,25.91,12.13,32.67,26.32,7,14.68,9.85,30.15,10.89,46.17,1.25,19.1-1.13,37.85-5.3,56.41-6.27,27.86-29.14,47.08-57.82,49.41-9.61.78-19.13,2.53-28.7,3.74-25.84,3.27-51.85,2.91-77.8,3-78.26.26-156.52.11-234.78.12-1.33,0-2.67.06-4,0-9.15-.37-10.39-1.62-10.38-10.52q0-49.41.09-98.81V379Zm200,16.82h-139c-9.3,0-11,1.47-11,9.85q-.06,50.88,0,101.77c0,6.63,1.66,8.26,8.1,8.63,1.32.08,2.66,0,4,0h102.9c43-.12,85.91.71,128.84-1.19,16.28-.72,32.42-1.82,48.42-5.92,10.46-2.69,16.47-8.9,19.68-17.84,7.85-21.87,9.22-44.17,1.41-66.47-3.18-9.07-8.57-16.06-17.62-20.55-8.06-4-16.38-5.32-25.06-5.63-42.92-1.56-85.84-3.11-120.73-2.65ZM2833.5,241h-45c-25,0-50-.06-74.95,0-8.73,0-9.82,1.09-10,9.67-.1,4.66.19,9.32.18,14q-.06,38.93-.19,77.87c0,9.72,1,11,9.61,11q108.43-.12,216.87-.34c14.34,0,28.64-.94,42.6-4.65,16.78-4.45,29.31-12.92,33.43-31.45a93.23,93.23,0,0,0-3.67-53c-3.49-9.62-11-16.59-22.23-17.71-6-.59-11.88-1.67-17.85-2.2C2919.45,240.33,2876.47,240.91,2833.5,241Z"/><path class="cls-1" d="M2130.62,452.69H2017.73c-10.61,0-12.87,2.66-11.38,13.21q.4,3,.67,6c1.55,17.81,8.94,26.27,26.75,29a317.19,317.19,0,0,0,49.72,3.87c15.68-.09,31.24-1.52,46.82-3,12.34-1.15,21.55-6.55,25.22-19.08,1.86-6.35,6.84-6.39,12-6.38q29,0,57.94.06c6.33,0,12.66-.24,19-.09,8,.2,9.42,1.9,8.4,9.72-2.86,21.87-11.87,40.57-28.57,55.36-5.08,4.5-10.87,8.29-17.17,9.73-13.27,3-26,8.05-39.63,9.87-10.89,1.46-21.7,3.12-32.7,3.6-39.28,1.72-78.59,2.31-117.81-.58a250,250,0,0,1-54.65-10.56c-18.49-5.64-31.61-16.82-40.55-32.94a78.11,78.11,0,0,1-9-25.11,393.18,393.18,0,0,1,.37-128.12c4.63-27.68,21.14-46.37,46.75-57.6,23.08-10.12,47.61-11.78,72.17-12.67,42.6-1.53,85.25-2.07,127.79,1.33,20,1.6,39.47,6.26,56.71,17.15a69.37,69.37,0,0,1,28,34c9,22.93,11.91,46.91,11.91,71.35,0,7.32.06,14.64,0,21.95-.1,8.29-1.56,10-10,10-22.64.13-45.28,0-67.93,0h-48Zm-48.56-53.45H2116c11.3,0,22.6.27,33.89,0,7.66-.2,9.21-2.35,8.63-9.9-1.24-16-9.67-25.73-25.3-28.93a241.45,241.45,0,0,0-99.94.43c-19.48,4.15-25.88,13.91-27.41,31.43-.37,4.3,1.77,6.15,5.47,6.79a36.46,36.46,0,0,0,6,.23Z"/><path class="cls-2" d="M3734.48,914.9V744.41c.14-8.64.15-8.73,9-8.77q27-.09,54,0c8.59,0,8.7.14,8.71,9v273.62c0,2.33-.12,4.66,0,7,.23,4.1-1.29,6.09-5.71,6.07-20.32-.12-40.65-.16-61,0-5.24.05-6.67-3.84-8.57-7.15-9-15.55-17.77-31.24-26.68-46.83q-34.7-60.66-69.45-121.28c-.93-1.61-1.25-3.8-4.64-4.73v166.47c0,2.33-.16,4.67,0,7,.36,4.62-1.45,6.57-6.28,6.53q-29.47-.24-59,0c-4.58,0-6.93-1.42-6.52-6.27.17-2,0-4,0-6V744.45c.14-8.67.14-8.77,8.9-8.81,18.33-.06,36.66.21,55-.15,5.81-.11,8.91,2,11.72,7q47.25,83.37,94.91,166.5C3730,910.89,3730.54,913.37,3734.48,914.9Z"/><path class="cls-1" d="M2446.55,559.11c-17.33,0-34.67-.42-52,.19-8,.28-12.67-3.17-15.85-9.57-8.11-16.33-16.36-32.61-23.87-49.23-7.38-16.33-16-32-24-48-7.66-15.44-15-31.05-22.55-46.54q-7.2-14.76-14.66-29.38c-5.57-10.92-11.48-21.66-16.89-32.66-5.55-11.28-10.68-22.76-16-34.18-2-4.27-1.12-6.12,3.35-6.88a35.37,35.37,0,0,1,6-.18h86c9.67,0,11.93,1.82,15.66,10.63,4.78,11.3,9.63,22.59,15.08,33.57,6.19,12.51,10.85,25.63,16.34,38.41,5.62,13.1,11,26.27,17.53,39a353.87,353.87,0,0,1,14.37,32.81c2.16,5.57,5.94,10.29,7.34,16.29,1,4.47,4.64,4.9,6.93.86,4.09-7.21,7.71-14.71,11.07-22.3,5.63-12.72,11.15-25.48,17.11-38.07,3.78-8,8.45-15.87,9.71-24.93.71-5.11,4-9.09,6-13.63,9.55-21.52,19.58-42.83,29-64.43,2.89-6.66,7.1-8.42,14-8.34,29,.31,58,.12,86.95.11a33.37,33.37,0,0,1,5,0c4.25.68,6.08,3.53,4,7.05-13.56,22.47-21.92,47.48-35.06,70.22-10.07,17.44-18.13,36.09-26.45,54.49-6.84,15.13-15.34,29.38-22.33,44.41-5.86,12.59-12.68,24.68-17.92,37.63-5.09,12.54-12.29,24.22-18.35,36.38-2.91,5.85-7.94,6.34-13.48,6.32-17.33-.06-34.65,0-52,0Z"/><path class="cls-1" d="M3632.44,449.61c-23.32,0-46.65.44-70-.14-17.3-.43-34.3-2.9-50.38-10.4-18.27-8.52-26.64-23.85-29-42.39-2.13-16.78-1.82-33.64,4.82-50.07,6.06-15,16.71-24.28,31.13-30.22,14.68-6,30.29-7.64,45.82-9.3,40.52-4.31,81.21-3.79,121.75-1.37,19.75,1.19,39.66,3.58,58.89,9.86,22.71,7.42,38.32,25.38,40.65,49,.45,4.63.91,9.28,1.07,13.93.19,5.73-1.07,7.38-6.63,7.54-10,.29-20,.12-30,.13-4.43,0-6.71-2.23-7-6.67-.17-2.65-.55-5.3-.92-7.93-1.66-11.76-9.91-19.87-21.38-23.57-15.78-5.09-32-6.29-48.26-6.86-30-1.06-59.93-1-89.9.65-12.75.71-25,3.54-37.33,6.41-7.81,1.82-12.33,7.48-16.21,13.84-6.73,11-4.7,32.09,4.41,41,4.84,4.71,11.23,6.84,18,7.74,13.91,1.84,27.9,1.84,41.9,1.92,31,.18,62,0,92.94.71,20.62.46,41.34,1.82,61.55,5.91,18.34,3.72,32.67,13.94,40.78,31.79,9.51,20.94,10.18,42.45,4.11,64.11-4.27,15.28-13.67,27.78-28,34.69-8.81,4.23-19,6.48-28.78,7.65a840.18,840.18,0,0,1-128.63,5.49c-22.93-.8-45.92-2.41-68.65-5.37a106.21,106.21,0,0,1-34.14-10c-11.6-5.83-17.76-16.22-22.27-27.12-5.5-13.29-6.57-27.77-5.83-42.2.31-6,1.8-7.73,7.89-8,10-.41,20-.25,30-.29,4.18,0,5.91,2.46,6.11,6.33q.47,8.46.88,16.92c.61,12.19,10.43,25.71,25,28.59a234,234,0,0,0,40.63,4.41q54,1.13,107.93,0a120.86,120.86,0,0,0,33.38-5.47c14.08-4.35,21.93-13.12,23.61-27.43a46.29,46.29,0,0,0-2.91-22.55c-2.94-7.41-9.42-11.86-16.76-14.59-11.68-4.34-23.89-5.8-36.3-5.79h-64Z"/><path class="cls-2" d="M4354.71,904.63q-8.29,29.42-16.51,58.58c-5.67,20.15-11.25,40.32-17,60.44-2.17,7.53-2.38,7.56-10.34,7.61-13,.08-26,0-39,0-10.74,0-10.83,0-13.25-10.26q-10.76-45.57-21.4-91.19-12.9-54.79-25.85-109.59c-2-8.34-1.79-8.63,6.46-8.68q25-.15,50,0c7.28,0,7.29.19,8.51,7.68q9.08,55.54,18.18,111.08c.53,3.2,1.5,6.34,2.73,11.4,7.34-27.83,14.2-53.81,21.05-79.79,3.65-13.81,7.21-27.65,10.93-41.44,2.39-8.87,2.49-8.89,11.31-9q15-.08,30,0c9,0,9.2,0,11.51,8.54,6.84,25.34,13.53,50.72,20.3,76.08,3.56,13.31,7.18,26.6,11.25,41.71,3.41-6.82,3.28-12.59,4.21-17.92,5.82-33,11.2-66.13,16.78-99.2,1.54-9.12,1.63-9.17,10.69-9.2q24-.09,48,0c2.62,0,5.33-.44,8.49,1.34-3.14,13.39-6.29,26.9-9.48,40.41q-19.92,84.38-39.86,168.74c-2.18,9.19-2.24,9.21-11.84,9.23q-19,.06-38,0c-10.15,0-10.14,0-12.79-9.48q-15.85-56.64-31.72-113.27A5.39,5.39,0,0,0,4354.71,904.63Z"/><path class="cls-2" d="M1574.26,791c-3.22-1.53-6.55-.84-9.75-.84q-58-.07-116,0c-2.33,0-4.67-.11-7,0-4,.23-6.16-1.19-6.12-5.64q.19-21.46,0-42.93c0-4.26,1.67-6.14,5.9-5.89,2,.12,4,0,6,0H1657.2c7.44.25,7.44.25,7.64,8.11.72,27.56.49,27.4-15.41,50.4q-60.77,87.85-121.14,176c-.9,1.32-2.09,2.61-1.61,4.78,2.56,1.62,5.58.83,8.4.84q58.49.09,117,0c2.33,0,4.68.14,7,0,4.57-.33,6.65,1.4,6.59,6.25q-.27,21.46,0,42.94c.06,4.8-1.93,6.67-6.55,6.34-2-.15-4,0-6,0H1443.23c-7.54-.22-7.56-.23-7.74-8-.06-2.66,0-5.33,0-8,0-23.21.17-23.1,13.37-42q60.92-87.15,121.54-174.49C1572,796.57,1574.54,794.52,1574.26,791Z"/><path class="cls-2" d="M5137.52,1029.5c-2.49,2.34-4.58,1.71-6.47,1.72-21,0-42-.14-62.94.15-5.68.08-9-1.67-11.87-6.73-14.19-24.81-28.82-49.37-43.66-74.64-7.55,4.92-13.16,11.33-18.6,17.83-2.24,2.67-1.52,6.36-1.52,9.67,0,15.3.07,30.61-.05,45.91-.06,7.61-.22,7.78-7.94,7.83q-26.48.16-52.95,0c-7.15,0-7.17-.22-7.42-7.24-.08-2,0-4,0-6V731.57c0-2-.05-4,0-6,.23-7.17.24-7.36,7.22-7.41q27-.17,54,0c6.91.05,7.09.26,7.14,7.56.12,17.3,0,34.6,0,51.9q0,46.9.06,93.82c0,3.13-1.15,6.58,1.13,9.34,1.84.12,2.64-.93,3.46-1.95,16.23-20.24,32.61-40.37,48.57-60.82,3.65-4.69,7.4-6.7,13.35-6.62,21.65.3,43.29.11,64.94.14,2.22,0,4.45.25,8,.46-4.95,8.8-11.66,14.79-17.28,21.5-17.06,20.42-34.57,40.47-51.89,60.68-6.11,7.14-6.19,7.23-1.08,15.3q36.54,57.75,73.19,115.45C5135.77,1026.33,5136.53,1027.79,5137.52,1029.5Z"/><path class="cls-1" d="M3364.33,342.45h-76.95c-10.05,0-11.26.92-11.2,10.46.27,43.26-.66,86.52.76,129.77,0,1.34.07,2.67.14,4,.93,18.1,10.06,28.76,27.36,34.55,25.47,8.51,51.38,6.06,77.19,4,11-.88,21-5.54,27.43-15.88,4.65-7.48,4.9-15.85,5.8-24,1-8.88.59-17.94.56-26.92,0-11.54,1.78-13.47,12.92-13.33,6.67.08,13.33-.13,20,0,6.1.09,8.23,1.49,8,7.49-.81,20.8,1.2,41.56-4.64,62.36-4.3,15.31-11.79,26.78-25,34.08a88.57,88.57,0,0,1-26.23,8.87c-20.28,3.78-40.77,6.55-61.53,5.36-23.28-1.35-46.48-3.67-68.49-11.87-11.24-4.19-19.17-12.9-25-23.41-7.43-13.47-9.81-28.34-10-43.26-.66-41.92-.48-83.85-.63-125.78v-3c0-13-.52-13.53-13.4-13.48q-18,.07-36,.05c-9.86,0-10.49-.72-10.47-11,0-5-.18-10-.09-15,.13-6.81,1.31-8.06,8.23-8.12,13.32-.1,26.65,0,40,0,9.59,0,11.66-1.89,11.73-11.6.1-13.65-.13-27.29-.12-40.93,0-8.53.63-9.34,8.83-9.56,8.65-.23,17.31,0,26,.1,4.92,0,7,2.23,6.91,7.41-.3,14-.22,27.95-.23,41.93,0,11.48,1.23,12.65,12.45,12.65q75.95,0,151.9-.05c10.67,0,11.48.86,11.4,11.21,0,5,.15,10,0,15-.15,6-1.7,7.67-7.65,7.93-4.66.21-9.33,0-14,0h-66Z"/><path class="cls-2" d="M1828.42,943.4c-20,0-39.94-.06-59.91,0-8.2,0-8.89,1.09-5.94,8.69,7.1,18.29,20.72,28,40.12,29.47,19.75,1.47,37.74-3.1,52.21-17.43,3.79-3.75,6-2.45,8.81.89,7.45,8.93,14.89,17.89,22.67,26.53,3.46,3.85,3.06,6.62-.22,10.21a85.81,85.81,0,0,1-28.7,21.22c-38.08,16.79-76.39,17.33-113.5-2.09-32.07-16.79-49.26-44.4-53.06-80.48-2.52-23.83-.59-47,7.61-69.63,14-38.54,46.19-60.18,85.49-62.93,11.9-.83,23.87-.91,35.79,1.5,37.74,7.65,60.93,30.58,71.45,67,5.69,19.73,5.68,40,5.39,60.31-.09,6.2-.72,6.62-8.29,6.65C1868.37,943.46,1848.39,943.4,1828.42,943.4Zm-33.74-43.53h28.88c2.86,0,5.19-.41,5.46-4.1,1.07-14.25-5.54-30.21-22.36-34.23-27-6.46-41.46,9.88-45.57,32.8-.84,4.7,1.75,5.62,5.71,5.57C1776.09,899.8,1785.39,899.88,1794.68,899.87Z"/><path class="cls-2" d="M3980.87,943.4H3923c-9.62,0-10.42,1.32-6.54,10.34,7.58,17.65,21.27,26.69,40.23,27.89,19.43,1.24,37.06-3.32,51.29-17.32,3.6-3.53,5.87-3,8.83.54,7.42,9,14.84,17.94,22.68,26.53,3.91,4.3,2.89,7.19-.59,11-13.31,14.4-29.83,23.25-48.54,28.12-32.81,8.53-64.82,6.35-94.71-10.32-30.92-17.26-47.75-44.2-51.47-79.46-2.52-23.8-.66-47.05,7.49-69.65,14-38.86,46.63-60.7,86.34-63.2,11.91-.74,23.87-.79,35.78,1.67,35.61,7.36,58.39,28.84,69.58,62.83,6.95,21.13,6.75,43.17,6.6,65.13-.05,5.92-3.89,6-8.14,5.94Q4011.33,943.37,3980.87,943.4Zm-33.14-43.53h28.88c2.79,0,5-.26,5.65-3.94,2.29-13.64-6.44-29.57-19.38-33.54-26-8-43.62,4.84-48.57,31.8-.84,4.55,1.43,5.78,5.54,5.73,9.29-.13,18.59,0,27.88,0Z"/><path class="cls-2" d="M2982.09,1009c-11.46,11.12-22.33,19.8-36.47,23.07-24.7,5.71-48.31,4.15-69.38-11.5-13.56-10.07-19.68-24.74-23.4-40.6a103.1,103.1,0,0,1-2.32-23.76q.08-67.38,0-134.76v-2c.21-7.72.21-7.86,7.75-7.92,14-.12,28-.22,42,0,5.86.11,13.1-2.68,17.22,1.65,3.69,3.87,1.28,10.82,1.3,16.39q.16,60.39,0,120.78a54.62,54.62,0,0,0,1.73,14.79c2.48,9,8.54,14.33,17.38,15.89a47.49,47.49,0,0,0,24.65-1.7c12.82-4.63,17.76-11.63,17.76-25.32V820.24c.15-8.66.15-8.75,8.93-8.79q25.49-.11,51,0c8.41,0,8.58.14,8.59,8.07q.08,101.81,0,203.63c0,7.77-.19,7.94-7.67,8-16.66.1-33.31-.07-50,.09-4.47,0-6.71-1.18-6.88-6.1S2983,1015.53,2982.09,1009Z"/><path class="cls-2" d="M4624.79,807.63a106,106,0,0,1,45,7.35c25.83,10.39,44.06,28.87,53.19,55,13.11,37.48,13.63,75.27-3.89,111.59-15.05,31.19-41.26,47.51-75.38,52.24-22.32,3.1-43.9,1-64.55-7.72-29.35-12.42-47.48-35-55.07-65.49-7.1-28.54-7.22-57.36,2-85.62,13.31-40.76,47.75-66.11,90.71-67.32C4619.46,807.57,4622.13,807.63,4624.79,807.63Zm37.37,114.92c0-6.31.24-12.63-.05-18.94a65.36,65.36,0,0,0-6.45-24.91c-8-17.05-26.65-20.91-39.41-17.44-16.25,4.41-22.25,16.88-25.76,31.27-3.83,15.69-3,31.73-1.84,47.63a58,58,0,0,0,6.13,23c4.18,7.92,10,14,18.77,16.84,19.48,6.4,37.12-1.94,44.37-21.07C4662.38,947.14,4662.65,934.88,4662.16,922.55Z"/><path class="cls-2" d="M2289.28,925.28a114,114,0,0,1-13.4,58.79c-15.63,28.65-40.11,44.42-72.05,49.5a126.8,126.8,0,0,1-50.51-2c-33.65-8.21-56.87-28.77-68.25-61.24-12.08-34.44-12-69.44,2.07-103.35,15.19-36.72,44.21-55.54,83.26-59,14.91-1.32,30-1.05,44.64,3,40.6,11.11,62.95,38.75,71.79,78.76C2289.22,900.49,2289.22,911.45,2289.28,925.28Zm-68.35-1.94c.15-16.21-.71-31-7.52-44.94-6.1-12.45-16.47-17.93-29.74-18.33-16.56-.49-28.85,9.86-34.28,28-2.22,7.41-2.78,15-3.44,22.63-1.5,17.36-.78,34.67,6.14,51,6.29,14.8,17.34,20.91,34.44,20.07,14.73-.73,23.79-9,28.88-22.29A91.52,91.52,0,0,0,2220.93,923.34Z"/><path class="cls-2" d="M2539.56,735.63h116c7.31.23,7.51.24,7.58,7.11q.22,20,0,40c-.07,7.09-.24,7.3-7.3,7.33-23,.11-46,0-69,0-2.34,0-4.67.11-7,0-4-.17-5.3,1.89-5.16,5.53.1,2.66,0,5.33,0,8v215.71c0,13,1,11.93-11.75,11.95h-49c-11.54,0-11,.67-11-10.72V851.82c0-18,.06-36,0-53.92,0-7.58-.19-7.73-7.88-7.76-23.33-.08-46.65,0-70,0-9.67,0-9.7-.08-9.74-10,0-12-.08-24,0-36,.06-8.29.17-8.43,8.28-8.46,21.32-.08,42.65,0,64,0Z"/><path class="cls-2" d="M3235.11,878.22c-9.33,0-18.65-.1-28,0-4,.06-5.93-1.29-6.46-5.58-1.14-9.31-5.75-16.18-15.31-18.84-11.19-3.1-21.93-2.79-31,5.45-9.47,8.64-8,22.09,3,28.7,9.29,5.57,19.8,7.65,30.26,9.69,14.39,2.82,28.65,6.14,42.09,12.13,16.65,7.43,30.34,18.07,36.62,36,9.43,27-.14,53.83-21.54,69-15.65,11.1-33,16.59-51.84,19-21.56,2.78-42.5,1-62.9-6.25-18.38-6.58-33.59-17.5-44.15-34.22a60.47,60.47,0,0,1-9.2-25.08c-.81-6.66.2-8,6.65-8,16.66-.2,33.32,0,50-.1,4.08,0,6.42,1,7.59,5.74,3.76,15.34,13.28,22.79,29.11,23.69,7,.4,14,.56,20.69-2.17,7.42-3,11.81-8.16,12.37-16.49s-3.62-13.17-10.45-16.48c-9-4.38-18.74-6.75-28.47-9-15.91-3.7-31.64-7.86-46.12-15.78-9.79-5.36-18.42-12-24.94-21.11-16.58-23-12.27-57.69,9.46-77.14,16.52-14.8,36.15-22.24,58.06-23.55,21.39-1.28,42.59-.36,62.88,7.84,15.2,6.14,28,15.19,37.17,29,5.29,8,7.85,16.85,9.33,26.09,1,6.26,0,7.28-7,7.39C3253.77,878.33,3244.44,878.23,3235.11,878.22Z"/><path class="cls-2" d="M3315.09,915.28c0-16,.08-31.94,0-47.91-.06-7.61-.22-7.66-7.91-7.84-4.66-.1-9.33-.12-14,0-4.21.09-6.08-1.88-6.07-6q.06-18.46,0-36.93c0-4,2.18-5.11,5.72-5.06,5.33.07,10.66-.18,16,0,4.85.2,6.39-2,6.34-6.6-.15-13-.1-26,0-38.93.06-9.85.13-9.92,10.07-9.94q25.47-.08,51,0c8.06,0,8.16.16,8.21,8.42.09,12.31,0,24.62,0,36.93,0,10,.07,10,9.64,10.06,7,0,14,.09,21,0,3.69,0,5.51,1.39,5.49,5.26-.08,12.31-.11,24.62,0,36.93.05,4.31-1.75,5.92-6,5.83-7.66-.16-15.33.11-23-.08-4.75-.13-7.33,1-7.29,6.55.22,32.61,0,65.22.26,97.82.1,12.28,5.6,17.37,17.93,17.82,5.32.2,10.66.06,16-.19,3.8-.17,5.52,1.31,5.5,5.15q-.09,18.46,0,36.93c0,4-2,6.17-5.64,7.06-14,3.42-28.08,5.86-42.46,4.09a155.11,155.11,0,0,1-16.75-2.48c-26.63-6.29-40.24-24.68-42.6-51.14a286.26,286.26,0,0,1-1.49-32.86C3315.32,937.25,3315.1,926.26,3315.09,915.28Z"/><path class="cls-2" d="M4088.8,914.87c0-16,.09-31.94,0-47.91-.05-7.13-.25-7.21-7.31-7.41-5-.15-10-.11-15,0-3.71,0-5.6-1.73-5.61-5.39V816.23c0-3.38,1.91-4.65,5.09-4.63,5.33,0,10.67-.24,16,0s7-1.91,7-7c-.22-13-.14-26,0-38.92.06-9.42.15-9.51,9.46-9.54,17.65-.06,35.31.12,53-.1,5.2-.06,7,1.8,6.9,6.94-.24,13-.11,25.95-.06,38.93,0,9.59.08,9.6,10,9.65,6.33,0,12.67.2,19,0,4.91-.19,7.3,1.27,7.16,6.71-.3,11.64-.23,23.29,0,34.94.08,4.7-1.66,6.58-6.4,6.43-7.32-.22-14.65-.14-22,0-7.57.12-7.73.21-7.76,7.89-.08,24.62,0,49.24,0,73.86,0,7.65-.17,15.31.16,23,.5,11.78,5.61,16.86,17.35,17.39a152.51,152.51,0,0,0,16-.15c4.22-.26,6.16,1.19,6.12,5.55-.1,12-.07,24,0,35.93,0,3.76-1.21,6.43-5.11,7.45-23.69,6.2-47.33,7.5-70.51-1.86-21.34-8.63-29.84-26.29-31.94-47.87C4088,958.79,4089,936.81,4088.8,914.87Z"/><path class="cls-2" d="M4830.62,837.94c4.16-5.42,7-9.39,10.08-13.09,14-16.58,32.46-19.35,52.6-16.52,4.32.61,4.82,3.77,4.77,7.4-.19,12.3-.25,24.61-.36,36.91,0,4.32,0,8.65-.18,13-.32,7.82-.8,8.25-9,7.86-2.64-.13-5.26-.68-7.9-1-12.2-1.43-24,.07-34.78,6.1-8.65,4.83-13.65,11.6-13.53,22.47.43,38.9.17,77.8.17,116.71,0,2.32-.14,4.66,0,7,.3,4.55-1.44,6.88-6.3,6.58-3.31-.21-6.65,0-10,0h-42.93c-9.08,0-9.16-.11-9.16-9.52V868.22c0-16-.05-31.92,0-47.88,0-8.49.14-8.64,8-8.69q24.46-.15,48.92,0c7,0,7.77.75,8.5,8C4830.11,825,4830.21,830.51,4830.62,837.94Z"/><path class="cls-2" d="M1993.24,837.61c4.93-6.23,8.24-11.54,12.65-16,13.84-14,30.9-15.6,49-13.31,3.76.47,6,2.64,5.63,6.78-1.84,17.9-1.06,35.88-1.49,53.81-.08,3.36-1.57,4.93-4.88,4.67s-6.64-.44-9.92-.94a62.71,62.71,0,0,0-32.32,3.84c-12.26,4.73-16.93,12.09-16.94,25.08v116.74c0,2.32-.12,4.66,0,7,.23,4.1-1.32,6.08-5.71,6.06q-28.47-.18-56.93,0c-4.39,0-5.93-2-5.71-6.1.11-2,0-4,0-6V823.65c0-2,.1-4,0-6-.21-4,1.19-6.19,5.64-6.16q26.46.16,52.93,0c4.37,0,5.69,2,5.93,6C1991.53,823.65,1992.41,829.78,1993.24,837.61Z"/><path class="cls-2" d="M2759.31,837.18c4.56-5.77,7.86-11.08,12.26-15.54,13.83-14,30.89-15.62,49-13.37,4.45.56,6.16,3.41,5.68,7.76-1.92,17.24-1.1,34.55-1.42,51.82-.08,4.24-1.58,6.22-5.91,5.72-3.29-.39-6.6-.71-9.89-1.12a63.78,63.78,0,0,0-31.35,4c-12.26,4.76-17,12.1-17,25.06v116.74c0,2.33-.12,4.66,0,7,.22,4.06-1.24,6.13-5.67,6.1q-28.46-.16-56.93,0c-4.35,0-6-2-5.75-6,.11-2,0-4,0-6V823.79c0-2.33.1-4.66,0-7-.13-3.91,1.94-5.2,5.56-5.19,17.64,0,35.28.09,52.93,0,4.32,0,6,1.84,5.92,6C2756.77,823.7,2757.94,829.79,2759.31,837.18Z"/><path class="cls-1" d="M3112.13,433.46V317.74c0-8.3.77-9.13,9.07-9.27,7.66-.13,15.32-.21,23,0,8.25.21,9.69,2.11,9,10.28-.32,3.63-.39,7.29-.39,10.94V536.21c0,4.3.31,8.61.63,12.91.49,6.6-1.5,9.92-7.72,10.16-9.29.37-18.61-.07-27.92-.33-3.52-.09-5.44-2.18-5.55-5.75-.05-1.66,0-3.33,0-5V433.46Z"/><path class="cls-1" d="M3153.67,223v14.92c0,6.43-1,8.25-6.87,8.5-9.61.42-19.24.13-28.87.09-4.26,0-5.76-2.61-5.76-6.47,0-11.6-.28-23.21,0-34.81.17-6.69,1.74-7.87,8.57-8,7.63-.15,15.27-.19,22.9-.08,8.42.12,10.09,2.08,10,10.93V223Z"/><path class="cls-1" d="M1824.4,421.11a17.22,17.22,0,0,0,9.41,3.65c18,1.83,29.51,12.32,37.47,27.66a27.73,27.73,0,0,1,2.81,12.56q.48,42.43.8,84.87c0,6.29-1.3,7.67-7.64,7.7q-44,.16-88,0c-7.84,0-9.16-1.94-9-9.54.33-19.3-.62-38.54-4.22-57.55-2.09-11.06-13.29-21.24-25-22.59a301.4,301.4,0,0,0-34.89-2.11q-77,.11-153.94,0c-10.55,0-12.12,1.5-12.11,12.08,0,23.3.08,46.61.11,69.91,0,9-.53,9.71-9.56,9.75q-44.48.18-89,0c-6.52,0-7.48-1.13-7.7-7.5-.12-3.33,0-6.66,0-10V211.45c0-9.71.74-10.71,9.74-10.68,119.28.37,238.57-.91,357.85,1,12.28.2,24.48,1,35.84,7,16.2,8.56,28.85,20.69,35.25,37.66,3.68,9.75,4.59,20.75,5.54,31.3a396.73,396.73,0,0,1,.12,70.8c-.92,10.23-2.26,20.59-5,30.45-2.88,10.44-10,18.63-18.77,25-5.35,3.9-10.84,7.4-17.78,8.49C1832,413.31,1827.71,416.29,1824.4,421.11ZM1647.28,290.34v-.21h-44c-17.65,0-35.3-.11-53,0-7.12.06-8.66,1.45-8.7,7.85-.11,23.29-.14,46.58.06,69.87.06,7.53,2,9.19,9.79,9.18q90.4-.21,180.83-.47a64.23,64.23,0,0,0,19.64-3.17c7.19-2.34,12.55-6.9,14.83-14.78,5-17.41,5.31-34.7,0-52.07-2.84-9.33-9.59-14-18.68-15.66-3.9-.7-8-.54-12-.55Q1691.74,290.3,1647.28,290.34Z"/><g id="Layer_2-2-2" data-name="Layer 2-2"><g id="Layer_1-2-2-2" data-name="Layer 1-2-2"><path class="cls-3" d="M743.26,203c11-6.86,15.09-21.94,8.23-32.92h0C720,119.35,652.75,104.26,603.38,135.8a94.62,94.62,0,0,0-32.91,32.91c-6.85,11-4.11,26.06,6.86,32.92s26,4.11,32.91-6.86h0c17.83-27.43,53.48-35.66,80.91-17.83A55.36,55.36,0,0,1,709,194.73c8.23,12.34,23.31,15.08,34.28,8.23Z"/><path class="cls-3" d="M696.64,255.07c12.34-2.75,21.94-15.09,19.19-27.43A58.5,58.5,0,0,0,661,181c-2.74,0-6.86,0-9.6,1.37a55.34,55.34,0,0,0-45.25,45.25c-1.37,12.34,6.85,24.68,19.2,27.43h4.11c11,0,21.94-8.23,23.31-19.2a10.32,10.32,0,0,1,9.6-6.86c2.74,0,5.49,2.74,6.86,6.86,2.74,11,12.34,19.2,23.31,19.2Z"/><path class="cls-3" d="M636.3,274.27c0,13.71,11,24.68,23.31,24.68,13.71,0,24.68-11,24.68-23.31S673.32,251,661,251h0C647.27,249.58,636.3,260.55,636.3,274.27Z"/><path class="cls-3" d="M1216.37,26.06C1156,26.06,1108,75.42,1108,135.76a107.25,107.25,0,0,0,4.12,30.17L892.74,325V244.1c0-30.17-24.69-54.86-54.86-56.23H810.46q-12.35,0-20.57,8.23t-8.23,20.57c0,16.46,13.71,30.17,28.8,30.17h24.68v251H485.45v-251h24.68c16.46-1.37,27.43-15.09,27.43-31.54-1.37-15.09-12.34-26.06-27.43-27.43H484.08a55,55,0,0,0-54.85,54.86v78.16l-215.3-155A114.46,114.46,0,0,0,218,135.76c0-60.34-49.37-108.33-108.33-108.33S0,75.42,0,135.76,49.37,244.1,108.34,244.1a109.32,109.32,0,0,0,64.45-20.57L425.11,407.28l2.74,1.38V519.73L370.26,619.84c-4.12,6.86-5.49,15.09-2.74,21.94,1.37,6.86,6.85,13.72,13.71,17.83a23.19,23.19,0,0,0,13.71,4.11H628.07V987.36c-57.6,19.2-87.77,80.91-68.57,138.5s80.91,87.77,138.51,68.57,87.76-80.91,68.56-138.51c-11-31.54-35.65-57.59-68.56-68.56v-325H925.65c16.45,0,28.8-13.71,28.8-30.17a23.13,23.13,0,0,0-4.12-13.71L892.74,518.36v-107c2.74-1.37,4.11-2.74,6.85-4.12l252.33-185.12c48,35.65,116.56,24.68,152.21-23.32s24.69-116.56-23.31-152.21A109.23,109.23,0,0,0,1216.37,26.06ZM69.94,135.76c0-21.94,16.45-39.77,38.4-39.77s39.76,16.46,39.76,38.4-16.45,39.77-38.39,39.77h0c-21.94,0-39.77-17.83-39.77-38.4ZM662.35,1130a38.4,38.4,0,1,1,0-76.8h0c20.57,0,38.4,17.83,38.4,38.4h0C702.12,1112.17,684.29,1130,662.35,1130Zm63.08-525.22q-8.22-8.24-20.57-8.23H615.73q-12.35,0-20.57,8.23H444.31l27.43-48H846.11l27.43,48Zm490.94-430.6a38.4,38.4,0,1,1,38.4-38.4h0a38.35,38.35,0,0,1-38.28,38.4Z"/><path class="cls-3" d="M661,72.68a1620.41,1620.41,0,0,1,397.69,49.37c1.37-24.69,9.6-48,21.94-68.57A1669.28,1669.28,0,0,0,661,0C519.73,0,381.23,17.83,245.47,52.11,257.81,72.68,266,96,267.41,120.68,396.31,89.14,528,72.68,661,72.68Z"/><path class="cls-3" d="M1153.29,281.12C1105.29,480,1002.44,722.69,757,964c19.2,15.09,35.66,32.92,46.63,54.86,122-117.94,224.9-255.07,303.06-407.29,50.74-101.48,90.51-207.07,116.57-318.15H1215Q1184.15,293.46,1153.29,281.12Z"/><path class="cls-3" d="M171.42,281.12c-19.2,8.23-41.14,12.34-61.71,13.72h-8.23C127.53,404.54,167.3,511.51,218,613c78.17,150.85,181,288,303.07,405.92,11-21.94,27.42-39.77,46.62-54.86C322.26,722.69,219.41,478.59,171.42,281.12Z"/></g></g><path class="cls-2" d="M5166.79,765.11h73.93v50.32h-73.93Zm0,73.38h73.93V1031.4h-73.93Z"/><path class="cls-2" d="M5287.94,838.49h68.85v31.43q15.44-19.26,31.24-27.52t38.51-8.27q30.69,0,48,18.26t17.35,56.4V1031.4h-74.29V925.32q0-18.17-6.73-25.7T5392,892.08a26.86,26.86,0,0,0-21.79,10.17q-8.35,10.17-8.36,36.51v92.64h-73.93Z"/><path class="cls-2" d="M5670.3,838.49h69.2v182.19l.18,8.54a80.41,80.41,0,0,1-7.72,34.6,72.69,72.69,0,0,1-20.52,26.61q-12.81,10.17-32.51,14.71t-45.14,4.54q-58.12,0-79.83-17.43t-21.71-46.69q0-3.63.36-9.8l71.75,8.17q2.73,10,8.36,13.8,8.18,5.64,20.52,5.63,16,0,23.89-8.53T5665,1025V995.79q-10.9,12.9-21.8,18.71a77.24,77.24,0,0,1-36.87,9.09q-38.69,0-62.48-33.79-16.91-24-16.9-63.39,0-45,21.8-68.66t57-23.62q22.52,0,37.14,7.63T5670.3,867ZM5600.73,932q0,20.9,8.9,31t23.43,10.08a29.84,29.84,0,0,0,23.16-10.45q9.36-10.44,9.35-31.51t-9.8-32.24q-9.81-11.17-24-11.17T5609.18,898Q5600.72,908.24,5600.73,932Z"/></g></g></g></g></svg>